<?xml version="1.0" encoding="iso-8859-1" standalone="no"?> 
<?xml-stylesheet href="index.css" type="text/css"?> 
<svg xmlns="http://www.w3.org/2000/svg" xmlns:xlink="http://www.w3.org/1999/xlink" width="214.77823pt" height="24.89742pt" viewBox="-24.3751 -10.92035 214.77823 24.89742 "> 
<g transform="translate(0, 13.97707 ) scale(1,-1) translate(0,10.92035 )"> 
       <g stroke="#000" fill="#000">
 <g stroke-width="0.4">
 <g fill="#ff3">
 <g fill="#ff3">
 <path d=" M 24.3751 0.0 C 24.3751 6.03122 13.46216 10.92035 0.0 10.92035 C -13.46216 10.92035 -24.3751 6.03122 -24.3751 0.0 C -24.3751 -6.03122 -13.46216 -10.92035 0.0 -10.92035 C 13.46216 -10.92035 24.3751 -6.03122 24.3751 0.0 Z M 0.0 0.0  " stroke="none"/>
 </g>
 <g transform="translate(-13.90282,-2.44444)">
 <g fill="#000">
 <text style="stroke:none" transform="scale(1,-1) translate(13.90282,0)" text-anchor="middle"  font-size="10"> 
<g fill="#000">
 <g stroke="none"> Origin</g> </g>
 </text> 
</g>
 </g>
 </g>
 <g fill="#b3b3ff">
 <g fill="#b3b3ff">
 <path d=" M 190.40312 0.0 C 190.40312 5.27185 172.3144 9.54543 150.00023 9.54543 C 127.68605 9.54543 109.59734 5.27185 109.59734 0.0 C 109.59734 -5.27185 127.68605 -9.54543 150.00023 -9.54543 C 172.3144 -9.54543 190.40312 -5.27185 190.40312 0.0 Z M 150.00023 0.0  " stroke="none"/>
 </g>
 <g transform="translate(124.76407,-3.41666)">
 <g fill="#000">
 <text style="stroke:none" transform="scale(1,-1) translate(25.23616,0)" text-anchor="middle"  font-size="10"> 
<g fill="#000">
 <g stroke="none"> Destination</g> </g>
 </text> 
</g>
 </g>
 </g>
 <path d=" M 24.5751 0.0 L 108.93735 0.0  " fill="none"/>
 <g transform="translate(108.93735,0.0)">
 <g stroke-width="0.31999">
 <g stroke-dasharray="none" stroke-dashoffset="0.0">
 <g stroke-linecap="round">
 <g stroke-linejoin="round">
 <path d=" M -1.19998 1.59998 C -1.09998 0.99998 0.0 0.09999 0.29999 0.0 C 0.0 -0.09999 -1.09998 -0.99998 -1.19998 -1.59998  " fill="none"/>
 </g>
 </g>
 </g>
 </g>
  </g>
 <g transform="translate(45.73245,5.08853)">
 <g fill="#000">
 <text style="stroke:none" transform="scale(1,-1) translate(21.25377,0)" text-anchor="middle"  font-size="10"> 
<g fill="#000">
 <g stroke="none"> <tspan font-family="cmr" font-size="8">the journey</tspan> </g> </g>
 </text> 
</g>
 </g>
 </g>
 </g>
 
                                                                            </g> 
</svg> 
